<svg xmlns="http://www.w3.org/2000/svg" viewBox="0 0 64 64">
  <defs>
    <linearGradient id="bg" x1="8" y1="6" x2="58" y2="60" gradientUnits="userSpaceOnUse">
      <stop stop-color="#07170d"/>
      <stop offset="1" stop-color="#010503"/>
    </linearGradient>
    <linearGradient id="green" x1="17" y1="13" x2="49" y2="53" gradientUnits="userSpaceOnUse">
      <stop stop-color="#9affbc"/>
      <stop offset=".48" stop-color="#35ff7a"/>
      <stop offset="1" stop-color="#13b94d"/>
    </linearGradient>
    <filter id="glow" x="-50%" y="-50%" width="200%" height="200%">
      <feGaussianBlur stdDeviation="2.2" result="blur"/>
      <feMerge><feMergeNode in="blur"/><feMergeNode in="SourceGraphic"/></feMerge>
    </filter>
  </defs>
  <rect x="2" y="2" width="60" height="60" rx="15" fill="url(#bg)" stroke="#35ff7a" stroke-opacity=".3" stroke-width="2"/>
  <path d="M20 18h19c8 0 13 4.2 13 11.2S47 40.5 39 40.5H29V51h-9V18Zm9 8v6.8h9.2c3 0 4.7-1.1 4.7-3.4 0-2.2-1.7-3.4-4.7-3.4H29Z" fill="url(#green)" filter="url(#glow)"/>
  <path d="m12 46 7-7m-7 0 7 7" stroke="#35ff7a" stroke-width="2.6" stroke-linecap="round" stroke-linejoin="round" opacity=".9"/>
  <path d="M29 54h22" stroke="#35ff7a" stroke-width="2" stroke-linecap="round" opacity=".55"/>
  <circle cx="51" cy="13" r="2.2" fill="#85ffab" filter="url(#glow)"/>
</svg>
